<svg class="icon" viewBox="0 0 1024 1024" xmlns="http://www.w3.org/2000/svg" width="200" height="200"><defs><style/></defs><path d="M614.4 785.067c-18.876 0-34.133-15.258-34.133-34.134V375.467c0-18.876 15.257-34.134 34.133-34.134s34.133 15.258 34.133 34.134v375.466c0 18.876-15.257 34.134-34.133 34.134zm-204.8 0c-18.876 0-34.133-15.258-34.133-34.134V375.467c0-18.876 15.257-34.134 34.133-34.134s34.133 15.258 34.133 34.134v375.466c0 18.876-15.257 34.134-34.133 34.134zM955.733 204.8H785.067v-68.267c0-56.456-45.568-102.4-101.615-102.4H341.333c-56.456 0-102.4 45.944-102.4 102.4V204.8H68.267c-18.876 0-34.134 15.258-34.134 34.133s15.258 34.134 34.134 34.134h887.466c18.876 0 34.134-15.258 34.134-34.134S974.609 204.8 955.733 204.8zM307.2 136.533c0-18.807 15.326-34.133 34.133-34.133h342.119c18.705 0 33.348 14.985 33.348 34.133V204.8H307.2v-68.267z"/><path d="M751.07 989.867H273.135c-56.457 0-102.4-45.944-102.4-102.4V374.955c0-18.842 15.292-34.134 34.133-34.134s34.134 15.292 34.134 34.134v512.512c0 18.841 15.325 34.133 34.133 34.133H751.07c18.841 0 34.133-15.292 34.133-34.133V376.354c0-18.841 15.258-34.133 34.134-34.133s34.133 15.292 34.133 34.133v511.113c0 56.456-45.944 102.4-102.4 102.4z"/></svg>