<svg class="icon" viewBox="0 0 1024 1024" xmlns="http://www.w3.org/2000/svg" width="200" height="200"><defs><style/></defs><path d="M998.969 348.16c-9.102-4.551-20.48-2.276-27.307 6.827L855.61 493.796l-59.165-106.952c-4.55-6.826-9.102-11.377-18.204-11.377-6.827 0-13.653 2.275-20.48 6.826l-68.267 75.094-93.297-175.218 40.96-25.031c6.826-4.551 11.377-11.378 11.377-20.48V102.4c0-9.102-4.55-15.929-11.377-20.48L523.378 13.653c-6.827-4.55-15.93-4.55-22.756 0L386.844 81.92c-6.826 4.551-11.377 11.378-11.377 20.48v136.533c0 9.103 4.55 15.93 11.377 20.48l40.96 25.031-93.297 175.218-65.991-75.093c-6.827-6.827-13.654-9.102-20.48-9.102-6.827 0-13.654 4.55-18.205 11.377l-61.44 106.952L52.338 352.71c-6.827-9.102-18.205-11.378-27.307-6.827-9.102 6.827-15.929 15.93-13.653 27.307l102.4 502.898-22.756 109.227c-2.275 6.826 0 13.653 4.551 18.204 4.551 6.827 11.378 9.102 18.205 9.102h794.169c6.826 0 13.653-2.275 18.204-9.102 4.551-4.551 6.827-11.378 4.551-18.204l-20.48-109.227 102.4-502.898c2.276-9.102-4.55-20.48-13.653-25.031zm-225.28 88.747l52.338 93.297-59.165 68.267-52.338-97.849 59.165-63.715zM420.978 225.28V116.053L512 61.44l91.022 54.613v111.503L512 282.169l-91.022-56.889zM254.862 436.907l56.89 63.715-52.339 97.85-56.889-68.268 52.338-93.297zM141.084 967.11l9.103-45.511h721.35l9.103 45.511H141.084zm723.627-95.573v4.55H159.29v-4.55L75.093 450.56 245.76 653.084c4.551 6.827 11.378 9.103 20.48 9.103 6.827 0 13.653-4.551 18.204-11.378L466.49 304.924l34.133 20.48c2.276 4.552 6.827 4.552 11.378 4.552s9.102 0 11.378-2.276l34.133-20.48 184.32 343.609c4.551 6.827 9.102 11.378 18.205 11.378 6.826 0 15.928-2.276 20.48-9.103L951.182 450.56l-86.47 420.978zM489.244 762.31h45.512V648.533h-45.512v113.778z"/></svg>