<svg class="icon" viewBox="0 0 1024 1024" xmlns="http://www.w3.org/2000/svg" width="200" height="200"><defs><style/></defs><path d="M663.704 428.26H285.05c-5.34 0-9.709 4.369-9.709 9.709v72.817c0 5.34 4.37 9.71 9.71 9.71h378.652c5.34 0 9.709-4.37 9.709-9.71V437.97c0-5.34-4.37-9.71-9.71-9.71z"/><path d="M1008.375 942.839l-177.19-177.19c148.184-180.71 137.868-448.437-31.555-617.738-179.617-179.738-471.374-179.738-651.719 0-179.738 180.345-179.738 472.102 0 651.72C317.212 969.052 584.94 979.368 765.65 831.184l177.19 177.19c3.883 3.398 10.073 3.398 13.35 0l52.186-52.187c3.398-3.276 3.398-9.466 0-13.35zM735.308 735.308c-144.18 144.058-377.682 144.058-521.86 0-144.059-144.18-144.059-377.682 0-521.86 144.178-144.059 377.68-144.059 521.86 0 144.058 144.178 144.058 377.68 0 521.86z"/></svg>