<svg class="icon" viewBox="0 0 1024 1024" xmlns="http://www.w3.org/2000/svg" width="200" height="200"><defs><style/></defs><path d="M512.015 1024c11.483 0 20.918-3.657 28.305-11.044a38.326 38.326 0 0011.044-28.306V551.364H984.65c11.483 0 20.919-3.657 28.306-11.044A38.326 38.326 0 001024 512.015a38.326 38.326 0 00-11.044-28.306 38.326 38.326 0 00-28.306-11.044H551.364V39.379a38.326 38.326 0 00-11.044-28.305A38.326 38.326 0 00512.015.029a38.326 38.326 0 00-28.306 11.045 38.326 38.326 0 00-11.044 28.305v433.286H39.379a38.326 38.326 0 00-28.305 11.044A38.326 38.326 0 00.029 512.015c0 11.483 3.657 20.918 11.045 28.305 7.387 7.387 16.822 11.044 28.305 11.044h433.286V984.65c0 11.483 3.657 20.919 11.044 28.306 7.314 7.314 16.823 11.044 28.306 11.044z"/></svg>