<svg class="icon" viewBox="0 0 1024 1024" xmlns="http://www.w3.org/2000/svg" width="200" height="200"><defs><style/></defs><path d="M411.57 435.752a77.672 77.672 0 0122.758 54.915v433.877L578.332 780.54a38.836 38.836 0 0011.34-27.341V490.667a77.672 77.672 0 0122.758-54.915l333.447-333.447H78.123L411.57 435.752zm-54.915 54.915L23.208 157.219A77.672 77.672 0 0178.123 24.633h867.754a77.672 77.672 0 0154.915 132.586L667.345 490.667V753.12a116.508 116.508 0 01-34.176 82.333L489.242 979.458a77.672 77.672 0 01-132.587-54.914V490.667z"/></svg>