<svg class="icon" viewBox="0 0 1077 1024" xmlns="http://www.w3.org/2000/svg" width="210.352" height="200"><defs><style/></defs><path d="M532.965 1003.52a10.294 10.294 0 01-6.737-2.048 14.929 14.929 0 01-4.15-4.15L7.868 353.172a49.314 49.314 0 01-3.071-47.858L154.355 25.169A52.925 52.925 0 01196.608 0h686.565a51.908 51.908 0 0141.283 24.414l149.558 285.912a49.421 49.421 0 01-5.174 47.75L591.117 942.62h-3.18l-43.708 53.625a12.234 12.234 0 01-11.318 7.276zm31.96-138.294l17.515 10.24 454.495-553.175H781.474l-216.55 542.935zm-82.082 4.635l17.516-10.24-212.992-537.169H43.978l438.865 547.41zm50.607-54.973l195.961-493.083h-394.51l198.55 493.137zM319.973 275.941L488.017 48.29H224.633l95.34 227.543zm479.124-1.994h197.255L886.029 58.96 799.097 274zm-438.002 0h349.238L536.037 41.122 361.095 273.947zm-285.103 0h192.242l-81.92-207.495L75.938 273.947zm672.552-3.665l91.244-222.046h-254.76l163.516 222.046z"/></svg>